<?xml version="1.0"?>
<svg width="24" height="24" xmlns="http://www.w3.org/2000/svg" xmlns:svg="http://www.w3.org/2000/svg" display="inherit">

 <g class="layer">
  <title>Layer 1</title>
  <path d="m12,2c-5.52,0 -10,4.48 -10,10s4.48,10 10,10s10,-4.48 10,-10s-4.48,-10 -10,-10zm0,1c4.96,0 9,4.04 9,9c0,1.42 -0.34,2.76 -0.93,3.96c-1.53,-1.72 -3.98,-2.89 -7.38,-3.03a4,4 0 0 0 3.31,-3.93c0,-2.21 -1.79,-4 -4,-4s-4,1.79 -4,4c0,1.97 1.43,3.6 3.31,3.93c-3.4,0.14 -5.85,1.31 -7.38,3.03c-0.59,-1.2 -0.93,-2.54 -0.93,-3.96c0,-4.96 4.04,-9 9,-9zm-3,6c0,-1.65 1.35,-3 3,-3s3,1.35 3,3s-1.35,3 -3,3s-3,-1.35 -3,-3zm3,12c-3.16,0 -5.94,-1.64 -7.55,-4.12c1.56,-1.95 4.16,-2.98 7.55,-2.98c3.39,0 5.99,1.03 7.55,2.98c-1.61,2.48 -4.39,4.12 -7.55,4.12z" id="svg_1"/>
 </g>
</svg>