<?xml version="1.0"?>
<svg width="24" height="24" xmlns="http://www.w3.org/2000/svg" xmlns:svg="http://www.w3.org/2000/svg" display="inherit" enable-background="new 0 0 24 24">

 <g class="layer">
  <title>Layer 1</title>
  <path d="m12,16.5c0.83,0 1.5,0.67 1.5,1.5s-0.67,1.5 -1.5,1.5s-1.5,-0.67 -1.5,-1.5s0.67,-1.5 1.5,-1.5zm-1.5,-4.5c0,0.83 0.67,1.5 1.5,1.5s1.5,-0.67 1.5,-1.5s-0.67,-1.5 -1.5,-1.5s-1.5,0.67 -1.5,1.5zm0,-6c0,0.83 0.67,1.5 1.5,1.5s1.5,-0.67 1.5,-1.5s-0.67,-1.5 -1.5,-1.5s-1.5,0.67 -1.5,1.5z" id="svg_1"/>
 </g>
</svg>